<svg width="52" height="40" viewBox="0 0 52 40" fill="none" xmlns="http://www.w3.org/2000/svg">
<g id="Group">
<path id="Vector" d="M40.1552 24.1398C39.4682 28.088 34.0702 32.3055 29.8499 32.3952C29.5555 32.3952 29.2611 32.4849 29.0648 32.6644C28.8685 32.7541 28.6722 32.8439 28.574 33.1131C27.1019 35.6256 27.887 37.5997 30.3407 39.2149C33.1869 41.0993 37.7015 39.2149 39.9589 37.51C45.6513 33.2028 51.4419 25.7551 51.1474 18.6661C52.1289 13.9101 51.9326 8.79551 50.4604 4.57808C49.479 1.8861 46.6327 0.540107 43.6884 0.360641C40.744 0.181029 34.659 -0.626417 32.0091 0.988627C29.3592 2.60396 29.1629 5.7446 28.8685 8.43643C28.5741 11.3976 27.6907 16.9612 30.4388 19.2942C33.1869 21.5375 41.0385 19.1148 40.1552 24.1398Z" fill="#5956E9"/>
<path id="Vector_2" d="M12.3231 24.1398C11.636 28.088 6.23823 32.3055 2.01783 32.3952C1.7234 32.3952 1.42896 32.4849 1.23267 32.6644C1.03622 32.7541 0.84009 32.8439 0.741784 33.1131C-0.730392 35.6256 0.0547659 37.5997 2.50839 39.2149C5.3546 41.0993 9.86928 39.2149 12.1268 37.51C17.8192 33.2028 23.6098 25.755 23.3153 18.6661C24.2968 13.9101 24.1005 8.79551 22.6285 4.57808C21.647 1.8861 18.8008 0.540107 15.8563 0.360641C12.9119 0.181029 6.82694 -0.626417 4.17703 0.988627C1.52727 2.60396 1.33082 5.7446 1.03638 8.43643C0.741948 11.3976 -0.141361 16.9612 2.6067 19.2942C5.35476 21.5375 13.3045 19.1148 12.3231 24.1398Z" fill="#5956E9"/>
</g>
</svg>
